<svg xmlns="http://www.w3.org/2000/svg" width="495" height="504" viewBox="0 0 495 504" version="1.1"><path d="M 114.500 154.424 C 107.628 156.394, 104.793 157.722, 95.128 163.500 C 76.482 174.647, 60.185 194.151, 52.948 213.979 C 47.657 228.478, 46.712 234.703, 47.266 251.413 C 47.850 269.059, 49.845 277.833, 56.302 291.170 C 60.935 300.737, 60.101 300.802, 53.391 291.399 C 48.466 284.497, 44.296 275.858, 40.857 265.428 C 38.884 259.446, 38.573 256.452, 38.582 243.500 C 38.591 230.242, 38.894 227.503, 41.188 219.917 C 47.232 199.929, 53.508 189.085, 67.433 174.569 C 79.303 162.195, 79.046 161.159, 66.047 168.972 C 35.768 187.170, 22.564 210.780, 24.271 243.668 C 25.624 269.721, 36.919 294.667, 54.768 311.026 C 71.117 326.009, 101.257 337.865, 123.500 338.061 C 132.497 338.141, 132.499 338.141, 128.593 339.572 C 122.387 341.847, 111.283 342.774, 101.732 341.816 C 90.318 340.671, 71.697 333.934, 61.705 327.335 C 44.842 316.197, 30.756 298.211, 24.243 279.500 C 19.882 266.971, 19 261.674, 19 248.010 C 19 231.246, 17.207 231.036, 13.243 247.334 C 11.959 252.613, 11.518 258.449, 11.569 269.500 C 11.631 282.883, 11.934 285.470, 14.381 293.500 C 17.692 304.364, 24.623 319.269, 28.480 323.818 C 34.543 330.971, 53.723 341.841, 70.500 347.634 C 74.350 348.963, 83.348 350.764, 90.495 351.635 C 101.482 352.975, 104.883 353.026, 112.496 351.969 C 127.747 349.851, 135.327 346.671, 154.765 334.234 C 170.725 324.023, 180.561 314.220, 187.685 301.427 C 190.257 296.807, 192.569 293.236, 192.823 293.490 C 193.613 294.279, 189.150 305.467, 185.239 312.502 C 172.489 335.442, 147.320 353.213, 118.649 359.519 C 112.480 360.876, 107.765 361.141, 96.649 360.755 C 83.752 360.307, 81.607 359.954, 72.411 356.761 C 66.863 354.834, 59.541 352.009, 56.141 350.483 C 52.740 348.957, 49.658 348.008, 49.292 348.375 C 47.065 350.602, 67.194 365.234, 77.249 368.698 C 79.487 369.469, 82.191 370.567, 83.260 371.139 C 87.890 373.617, 102.375 376.986, 112.925 378.039 C 125.686 379.312, 137.377 378.217, 144.500 375.082 C 158.678 368.842, 180.399 349.277, 189.471 334.574 C 198.964 319.190, 203.768 303.582, 204.697 285.109 C 205.324 272.629, 203.777 261.699, 199.963 251.661 C 198.910 248.888, 198.179 246.488, 198.340 246.327 C 198.946 245.721, 204.973 258.870, 207.601 266.531 C 209.856 273.103, 210.415 276.744, 210.788 287.302 C 211.059 294.988, 210.767 302.581, 210.057 306.302 C 206.463 325.133, 195.795 344.035, 179.266 360.860 C 174.539 365.671, 172.995 368, 174.532 368 C 177.730 368, 196.343 356.245, 202.500 350.338 C 213.227 340.045, 219.381 330.663, 222.073 320.497 C 225.154 308.859, 225.882 286.075, 223.515 275.389 C 219.113 255.518, 210.429 237.833, 199.702 226.893 C 183.747 210.621, 168.065 202.816, 141.614 197.981 C 135.118 196.794, 120.225 197.075, 114 198.503 C 112.625 198.818, 113.750 198.119, 116.500 196.949 C 122.822 194.259, 134.454 192, 141.980 192 C 149.017 192, 166.091 195.314, 173.676 198.152 C 187.179 203.204, 205.293 217.236, 212.941 228.568 C 225.562 247.268, 232 268.300, 232 290.828 C 232 301.768, 232.988 304.807, 234.900 299.750 C 239.481 287.636, 240.955 259.055, 237.706 245.322 C 235.544 236.180, 231.634 225.327, 228.514 219.805 C 217.099 199.610, 187.962 183.189, 157.500 179.785 C 149.109 178.847, 145.942 178.932, 137.820 180.311 C 122.297 182.946, 108.800 188.366, 95.500 197.303 C 87.356 202.776, 69.486 220.976, 64.133 229.250 C 61.730 232.963, 59.600 236, 59.397 236 C 58.504 236, 63.525 224.779, 67.809 217.201 C 75.016 204.452, 87.739 191.502, 101.747 182.660 C 107.476 179.043, 126.546 172.354, 134.692 171.104 C 148.372 169.004, 162.823 170.019, 175.500 173.970 C 184.765 176.857, 195.175 180.959, 198.618 183.080 C 203.567 186.128, 204.697 185.318, 200.946 181.412 C 191.074 171.133, 171.187 160.075, 155 155.865 C 144.875 153.231, 121.553 152.401, 114.500 154.424 M 222.206 173.480 C 216.068 178.645, 215.602 186.199, 221.039 192.392 C 229.241 201.734, 245.610 194.308, 243.636 182.142 C 242.468 174.948, 237.617 171.039, 229.827 171.015 C 226.297 171.004, 224.432 171.607, 222.206 173.480 M 226.637 179.276 C 224.334 180.960, 225.513 184.217, 228.275 183.803 C 231.176 183.368, 232.951 180.231, 231 178.987 C 229.043 177.739, 228.709 177.761, 226.637 179.276 M 116.500 215.620 C 111.550 220.310, 105.025 226.250, 102 228.819 C 70.906 255.231, 60 264.994, 60 266.418 C 60 267.065, 61.806 269.358, 64.014 271.514 L 68.028 275.433 77.264 266.340 C 89.580 254.214, 92.942 251.067, 99.123 245.882 C 110.160 236.622, 115.661 231.632, 120.046 226.903 C 122.546 224.206, 125.058 222, 125.627 222 C 126.196 222, 128.952 224.363, 131.750 227.250 C 139.191 234.927, 143.498 238.829, 153 246.498 C 157.675 250.271, 161.996 253.840, 162.603 254.429 C 167.032 258.730, 184.394 274.545, 184.886 274.727 C 185.782 275.058, 191.006 267.418, 190.964 265.840 C 190.944 265.103, 189.256 263.235, 187.214 261.690 C 185.171 260.144, 180.912 256.382, 177.750 253.329 L 172 247.778 171.782 240.639 C 171.662 236.713, 171.507 231.250, 171.437 228.500 C 171.294 222.818, 170.599 222.383, 163.383 223.465 L 159 224.123 159 229.502 C 159 232.461, 158.582 235.140, 158.072 235.456 C 157.121 236.043, 131.003 212.877, 128.355 209.097 C 127.548 207.944, 126.575 207.021, 126.193 207.046 C 125.812 207.071, 121.450 210.929, 116.500 215.620 M 124.194 235.914 C 123.262 236.855, 118 241.614, 112.500 246.490 C 107 251.366, 96.987 260.688, 90.250 267.206 L 78 279.055 78 292.837 L 78 306.619 83.250 311.084 C 97.948 323.584, 108.578 327.467, 128 327.426 C 147.017 327.386, 156.354 323.222, 169.926 308.729 L 175.330 302.958 175.112 291.229 L 174.895 279.500 165.697 270.171 C 160.639 265.040, 151.550 256.654, 145.500 251.536 C 139.450 246.419, 132.562 240.425, 130.194 238.218 C 126.135 234.435, 125.791 234.302, 124.194 235.914 M 275.500 238.453 C 274.950 238.658, 273.297 239.089, 271.827 239.412 C 270.357 239.735, 267.770 241.384, 266.077 243.077 C 263.674 245.480, 263 247.024, 263 250.127 C 263 257.819, 266.552 261.167, 277.705 263.989 C 285.156 265.874, 287.145 270.205, 281.748 272.792 C 278.349 274.421, 272.803 273.103, 269.331 269.842 L 266.945 267.600 264.367 270.179 C 261.062 273.484, 261.785 275.949, 266.905 278.827 C 275.064 283.412, 284.843 282.900, 290.471 277.592 C 293.636 274.607, 294 273.724, 294 269.032 C 294 264.443, 293.593 263.393, 290.690 260.490 C 288.744 258.544, 285.549 256.708, 282.940 256.036 C 275.147 254.029, 273.665 253.416, 272.629 251.774 C 269.922 247.483, 279.189 245.226, 285.123 248.732 C 288.035 250.452, 288.071 250.444, 290.438 247.482 C 293.071 244.185, 292.630 242.894, 288.060 240.531 C 285.380 239.145, 277.253 237.800, 275.500 238.453 M 446.653 247.250 C 446.141 249.289, 445.595 249.466, 440.828 249.139 C 431.917 248.527, 427 252.600, 427 260.593 C 427 262.958, 427.782 264.873, 429.414 266.505 C 431.701 268.792, 431.727 268.952, 429.917 269.526 C 427.600 270.262, 426.445 274.186, 427.821 276.645 C 428.603 278.042, 428.294 278.925, 426.411 280.670 C 420.666 285.995, 425.382 293.279, 435.386 294.529 C 448.780 296.202, 457.989 289.556, 454.966 280.397 C 453.545 276.090, 449.678 274, 443.131 274 C 440.399 274, 437.452 273.727, 436.582 273.393 C 434.057 272.424, 434.751 271.001, 437.750 270.994 C 442.648 270.984, 447.861 268.993, 449.955 266.331 C 452.226 263.443, 452.715 257.115, 450.813 255.213 C 449.898 254.298, 450.126 253.495, 451.813 251.699 C 454.387 248.960, 454.635 246.458, 452.418 245.607 C 449.305 244.412, 447.215 245.008, 446.653 247.250 M 296.536 251.250 C 296.905 252.488, 299.661 259.704, 302.660 267.286 C 306.055 275.873, 307.877 281.813, 307.488 283.037 C 306.626 285.753, 303.424 287.252, 300.063 286.514 C 297.478 285.946, 297.199 286.171, 296.717 289.197 C 295.817 294.853, 301.404 296.800, 308.656 293.359 C 312.625 291.475, 315.773 285.884, 320.963 271.500 C 322.749 266.550, 325.288 259.883, 326.605 256.684 C 327.922 253.485, 329 250.448, 329 249.934 C 329 249.420, 327.030 249, 324.622 249 L 320.244 249 318.167 254.750 C 317.024 257.913, 315.548 262.413, 314.887 264.750 C 314.225 267.087, 313.380 269, 313.010 269 C 312.639 269, 310.632 264.500, 308.549 259 L 304.762 249 300.314 249 C 296.168 249, 295.911 249.153, 296.536 251.250 M 333 265 L 333 281 337.500 281 L 342 281 342 270.655 C 342 261.903, 342.282 260.055, 343.829 258.655 C 346.186 256.521, 351.585 256.475, 352.393 258.582 C 352.727 259.452, 353 264.852, 353 270.582 L 353 281 357.500 281 L 362 281 362 268.950 C 362 252.475, 360.089 249, 351.031 249 C 348.775 249, 345.875 249.691, 344.586 250.536 C 342.478 251.917, 342.182 251.917, 341.652 250.536 C 341.257 249.506, 339.734 249, 337.031 249 L 333 249 333 265 M 375.116 250.712 C 366.181 255.114, 365.567 273.011, 374.136 279.289 C 379.798 283.437, 390.994 282.365, 394.984 277.293 C 397.572 274.004, 397.537 273.749, 394.248 271.806 C 391.667 270.281, 391.349 270.299, 389.137 272.090 C 387.840 273.140, 385.578 274, 384.112 274 C 380.943 274, 377 271.474, 377 269.443 C 377 268.282, 378.952 268, 387 268 L 397 268 397 263.468 C 397 257.323, 394.786 252.458, 391.128 250.566 C 387.193 248.531, 379.400 248.602, 375.116 250.712 M 403 265 L 403 281 407.500 281 L 412 281 412 272.649 C 412 260.038, 413.375 257.302, 419.429 257.861 C 421.876 258.088, 422.965 256.369, 422.985 252.250 C 422.999 249.241, 422.757 249, 419.723 249 C 417.920 249, 415.491 249.669, 414.324 250.486 C 412.448 251.800, 412.137 251.800, 411.633 250.486 C 411.259 249.511, 409.675 249, 407.031 249 L 403 249 403 265 M 456 249.355 C 456 250.253, 465.262 274.531, 466.623 277.200 C 467.380 278.686, 468 280.813, 468 281.927 C 468 284.830, 463.756 287.325, 460.162 286.536 C 457.429 285.935, 457.199 286.128, 456.557 289.549 C 456.180 291.560, 456.088 293.421, 456.353 293.686 C 457.835 295.168, 465.046 295.072, 468.302 293.527 C 472.585 291.494, 474.141 289.280, 477.594 280.302 C 481 271.445, 489 249.708, 489 249.309 C 489 249.139, 487.031 249, 484.625 249 L 480.251 249 477.027 258.250 C 475.254 263.337, 473.495 268.059, 473.116 268.743 C 472.729 269.443, 470.867 265.516, 468.849 259.743 L 465.270 249.500 460.635 249.195 C 458.086 249.028, 456 249.100, 456 249.355 M 437.050 256.440 C 436.393 257.231, 436.001 259.144, 436.178 260.690 C 436.431 262.894, 437.078 263.567, 439.183 263.810 C 441.046 264.025, 442.190 263.513, 442.929 262.132 C 445.318 257.668, 440.169 252.682, 437.050 256.440 M 378.598 258.163 C 376.468 261.205, 377.392 262, 383.059 262 C 387.150 262, 388 261.690, 388 260.200 C 388 255.791, 381.280 254.335, 378.598 258.163 M 109.579 267.540 C 109.229 268.937, 109.238 272.312, 109.600 275.040 L 110.258 280 117.129 280 L 124 280 124 272.500 L 124 265 117.108 265 C 110.562 265, 110.185 265.127, 109.579 267.540 M 129 272.500 L 129 280 136 280 L 143 280 143 272.500 L 143 265 136 265 L 129 265 129 272.500 M 432.649 283.473 C 431.900 285.423, 435.679 288, 439.288 288 C 443.196 288, 446 286.314, 446 283.965 C 446 282.217, 445.295 282, 439.607 282 C 434.900 282, 433.065 282.388, 432.649 283.473 M 110 292 L 110 299 117 299 L 124 299 124 292 L 124 285 117 285 L 110 285 110 292 M 128.758 285.750 C 128.560 286.163, 128.573 289.313, 128.788 292.750 L 129.178 299 136.089 299 L 143 299 143 292 L 143 285 136.059 285 C 132.241 285, 128.956 285.337, 128.758 285.750 M 123.211 310.275 L 121.073 312.551 125.534 312.525 C 130.475 312.497, 130.855 312.084, 128.171 309.655 C 125.843 307.548, 125.764 307.558, 123.211 310.275 M 232 326.702 C 231.175 327.001, 229.037 328.629, 227.250 330.319 C 224.452 332.965, 224 334.067, 224 338.246 C 224 344.612, 226.142 348.521, 230.981 350.990 C 235.848 353.473, 238.332 353.486, 243.684 351.057 C 250.868 347.795, 253.163 339.534, 248.730 332.898 C 245.119 327.492, 237.551 324.689, 232 326.702 M 12.314 330.950 C 8.372 333.354, 7 335.815, 7 340.484 C 7 346.273, 9.377 349.755, 14.217 351.058 C 22.043 353.166, 28.537 349.628, 29.671 342.641 C 30.448 337.850, 28.510 333.478, 24.514 331.009 C 20.422 328.480, 16.398 328.460, 12.314 330.950 M 233.724 333.134 C 231.526 334.365, 231.401 339, 233.566 339 C 236.013 339, 239 337.076, 239 335.500 C 239 333.407, 235.801 331.972, 233.724 333.134 M 15.105 336.373 C 13.790 337.958, 14.646 341, 16.407 341 C 18.167 341, 20 338.857, 20 336.800 C 20 334.647, 16.771 334.366, 15.105 336.373" stroke="none" fill="#182a3b" fill-rule="evenodd"/></svg>