<svg xmlns="http://www.w3.org/2000/svg" width="592" height="421" viewBox="0 0 592 421" version="1.1"><path d="M 135.750 124.706 C 136.988 124.944, 139.012 124.944, 140.250 124.706 C 141.488 124.467, 140.475 124.272, 138 124.272 C 135.525 124.272, 134.512 124.467, 135.750 124.706 M 134.728 133.722 C 136.503 133.943, 139.653 133.946, 141.728 133.730 C 143.802 133.513, 142.350 133.333, 138.500 133.328 C 134.650 133.324, 132.952 133.501, 134.728 133.722 M 98.700 144.179 C 96.218 145.084, 95.084 147.639, 97.525 146.825 C 98.061 146.646, 98.388 146.162, 98.250 145.750 C 98.112 145.338, 98.648 145, 99.441 145 C 100.234 145, 101.160 144.550, 101.500 144 C 101.840 143.450, 101.979 143.036, 101.809 143.079 C 101.639 143.122, 100.240 143.617, 98.700 144.179 M 156 146.879 C 156 147.266, 157.532 148.278, 159.405 149.127 C 161.516 150.083, 162.646 150.242, 162.379 149.544 C 161.886 148.261, 156 145.801, 156 146.879 M 164.333 150.452 C 164.333 151.255, 164.708 151.680, 165.167 151.397 C 165.625 151.114, 166 151.359, 166 151.941 C 166 152.523, 166.637 153, 167.417 153 C 168.196 153, 169.007 153.522, 169.220 154.160 C 169.508 155.025, 170.101 155.006, 171.553 154.084 C 173.104 153.100, 173.144 152.960, 171.750 153.393 C 170.787 153.692, 170 153.501, 170 152.969 C 170 152.436, 169.473 152, 168.829 152 C 168.185 152, 166.910 151.323, 165.995 150.496 C 164.558 149.195, 164.333 149.189, 164.333 150.452 M 251.932 178.763 L 248.500 182.496 251.995 179.498 C 253.917 177.849, 255.680 176.387, 255.912 176.250 C 256.144 176.113, 256.115 175.782, 255.848 175.515 C 255.582 175.248, 253.819 176.710, 251.932 178.763 M 286 176.713 C 286 177.156, 286.917 178.092, 288.039 178.792 C 289.160 179.492, 289.766 180.570, 289.384 181.187 C 288.962 181.871, 289.142 182.030, 289.845 181.595 C 290.480 181.203, 290.986 180.571, 290.969 180.191 C 290.923 179.195, 286 175.748, 286 176.713 M 268.264 183.718 C 269.784 183.947, 272.034 183.941, 273.264 183.704 C 274.494 183.467, 273.250 183.279, 270.500 183.286 C 267.750 183.294, 266.744 183.488, 268.264 183.718 M 528.784 183.845 C 529.510 184.306, 529.803 185.493, 529.458 186.580 C 528.898 188.344, 528.941 188.357, 529.979 186.742 C 531.210 184.825, 530.577 182.991, 528.691 183.015 C 527.843 183.026, 527.870 183.265, 528.784 183.845 M 519.450 186.903 C 518.928 187.400, 517.600 188.022, 516.500 188.287 C 514.603 188.743, 514.609 188.774, 516.628 188.884 C 517.798 188.948, 519.315 188.325, 520 187.500 C 521.357 185.864, 520.977 185.451, 519.450 186.903 M 247.232 190 C 247.232 191.925, 247.438 192.713, 247.689 191.750 C 247.941 190.787, 247.941 189.213, 247.689 188.250 C 247.438 187.287, 247.232 188.075, 247.232 190 M 375.750 187.706 C 376.988 187.944, 379.012 187.944, 380.250 187.706 C 381.488 187.467, 380.475 187.272, 378 187.272 C 375.525 187.272, 374.512 187.467, 375.750 187.706 M 421.083 187.360 C 421.313 187.559, 424.650 187.960, 428.500 188.253 C 432.569 188.562, 434.453 188.453, 433 187.992 C 430.527 187.208, 420.279 186.665, 421.083 187.360 M 507.264 187.718 C 508.784 187.947, 511.034 187.941, 512.264 187.704 C 513.494 187.467, 512.250 187.279, 509.500 187.286 C 506.750 187.294, 505.744 187.488, 507.264 187.718 M 302.476 188.719 C 305.763 188.936, 308.835 189.650, 309.302 190.307 C 309.898 191.142, 310.031 191.051, 309.747 190 C 309.443 188.877, 307.728 188.478, 302.921 188.412 L 296.500 188.324 302.476 188.719 M 337.645 188.738 C 343.359 189.065, 343.760 189.244, 343.374 191.295 C 342.982 193.375, 343.013 193.387, 343.909 191.500 C 345.500 188.151, 345.230 187.993, 338.250 188.193 L 331.500 188.385 337.645 188.738 M 351.667 188.667 C 350.743 189.591, 350.823 233.772, 351.750 234.347 C 352.163 234.602, 352.371 224.504, 352.214 211.906 L 351.928 189 357.464 189 C 362.982 189, 363 189.010, 363 192.083 C 363 195.159, 364.897 195.809, 365.817 193.048 C 366.081 192.257, 365.803 192.004, 365.130 192.420 C 364.403 192.869, 364 192.206, 364 190.559 C 364 188.106, 363.758 188, 358.167 188 C 354.958 188, 352.033 188.300, 351.667 188.667 M 455 211.500 C 455 224.425, 455.337 235, 455.750 235.001 C 456.163 235.001, 456.371 224.651, 456.214 212.001 L 455.928 189 461.464 189 C 466.597 189, 467 189.170, 467 191.333 C 467 194.433, 467.931 195.212, 469.619 193.524 C 471.480 191.663, 471.384 190.437, 469.500 192 C 468.232 193.053, 468 192.840, 468 190.622 C 468 188.061, 467.848 188, 461.500 188 L 455 188 455 211.500 M 536.728 188.722 C 538.503 188.943, 541.653 188.946, 543.728 188.730 C 545.802 188.513, 544.350 188.333, 540.500 188.328 C 536.650 188.324, 534.952 188.501, 536.728 188.722 M 572.750 188.723 C 574.538 188.945, 577.462 188.945, 579.250 188.723 C 581.038 188.502, 579.575 188.320, 576 188.320 C 572.425 188.320, 570.962 188.502, 572.750 188.723 M 38.923 189.250 C 38.290 191.319, 38.364 193, 39.088 193 C 39.590 193, 40 192.100, 40 191 C 40 189.392, 39.252 188.176, 38.923 189.250 M 389.637 192.500 C 391.167 194.700, 392.550 196.688, 392.710 196.917 C 392.869 197.146, 393 196.904, 393 196.379 C 393 195.854, 391.618 193.866, 389.928 191.962 L 386.856 188.500 389.637 192.500 M 436.500 189.635 C 437.050 190.119, 439.073 191.862, 440.996 193.508 L 444.493 196.500 441.996 193.658 C 440.623 192.095, 438.600 190.353, 437.500 189.786 C 436.400 189.219, 435.950 189.151, 436.500 189.635 M 505.750 196.572 C 504.238 197.393, 503.052 198.837, 503.116 199.782 C 503.214 201.233, 503.298 201.253, 503.658 199.911 C 503.893 199.038, 505.528 197.604, 507.292 196.725 C 509.057 195.847, 510.050 195.117, 509.500 195.104 C 508.950 195.091, 507.262 195.751, 505.750 196.572 M 312.573 199 C 312.941 200.375, 313.659 202.175, 314.169 203 C 314.813 204.042, 314.892 203.737, 314.427 202 C 314.059 200.625, 313.341 198.825, 312.831 198 C 312.187 196.958, 312.108 197.263, 312.573 199 M 423.750 197.706 C 424.988 197.944, 427.012 197.944, 428.250 197.706 C 429.488 197.467, 428.475 197.272, 426 197.272 C 423.525 197.272, 422.512 197.467, 423.750 197.706 M 249.884 199.783 C 251.217 202.273, 256.864 206.470, 257.724 205.609 C 258.059 205.274, 257.823 205, 257.200 205 C 256.577 205, 254.425 203.359, 252.419 201.353 C 250.389 199.323, 249.265 198.627, 249.884 199.783 M 538.071 200.500 C 538.071 201.050, 538.714 202.625, 539.500 204 C 540.286 205.375, 540.929 206.050, 540.929 205.500 C 540.929 204.950, 540.286 203.375, 539.500 202 C 538.714 200.625, 538.071 199.950, 538.071 200.500 M 287.985 204.507 C 291.967 209.303, 292.303 209.613, 291.215 207.489 C 290.649 206.383, 289.131 204.586, 287.843 203.496 C 285.583 201.584, 285.588 201.620, 287.985 204.507 M 393.407 219 C 393.407 228.075, 393.559 231.787, 393.744 227.250 C 393.929 222.713, 393.929 215.287, 393.744 210.750 C 393.559 206.213, 393.407 209.925, 393.407 219 M 219.328 211.500 C 219.333 215.350, 219.513 216.802, 219.730 214.728 C 219.946 212.653, 219.943 209.503, 219.722 207.728 C 219.501 205.952, 219.324 207.650, 219.328 211.500 M 381.185 219.750 C 381.083 228.137, 381.337 235.001, 381.750 235.002 C 382.163 235.003, 382.381 230.391, 382.236 224.752 C 381.756 206.116, 381.372 204.291, 381.185 219.750 M 552.071 205.500 C 552.071 206.050, 552.714 207.625, 553.500 209 C 554.286 210.375, 554.929 211.050, 554.929 210.500 C 554.929 209.950, 554.286 208.375, 553.500 207 C 552.714 205.625, 552.071 204.950, 552.071 205.500 M 403.286 211.500 C 403.294 214.250, 403.488 215.256, 403.718 213.736 C 403.947 212.216, 403.941 209.966, 403.704 208.736 C 403.467 207.506, 403.279 208.750, 403.286 211.500 M 316.071 208.500 C 316.071 209.050, 316.714 210.625, 317.500 212 C 318.286 213.375, 318.929 214.050, 318.929 213.500 C 318.929 212.950, 318.286 211.375, 317.500 210 C 316.714 208.625, 316.071 207.950, 316.071 208.500 M 573.162 210.543 C 571.487 214.220, 571.807 215.005, 573.618 211.662 C 574.464 210.100, 574.969 208.636, 574.741 208.407 C 574.512 208.179, 573.802 209.140, 573.162 210.543 M 467.392 222 C 467.392 229.425, 467.549 232.463, 467.742 228.750 C 467.934 225.037, 467.934 218.963, 467.742 215.250 C 467.549 211.537, 467.392 214.575, 467.392 222 M 524.954 211.587 C 524.193 213.008, 522.317 214.819, 520.785 215.611 C 519.253 216.403, 518 217.276, 518 217.551 C 518 217.826, 519.283 217.388, 520.852 216.577 C 523.582 215.165, 527.608 210.275, 526.748 209.415 C 526.522 209.188, 525.714 210.166, 524.954 211.587 M 292.272 215 C 292.272 217.475, 292.467 218.488, 292.706 217.250 C 292.944 216.012, 292.944 213.988, 292.706 212.750 C 292.467 211.512, 292.272 212.525, 292.272 215 M 545.571 220 C 545.930 221.375, 546.624 222.928, 547.112 223.450 C 548.540 224.977, 548.102 222.786, 546.423 220 L 544.917 217.500 545.571 220 M 188.232 222 C 188.232 223.925, 188.438 224.713, 188.689 223.750 C 188.941 222.787, 188.941 221.213, 188.689 220.250 C 188.438 219.287, 188.232 220.075, 188.232 222 M 420.872 224.250 C 421.833 225.475, 423.483 225.950, 426.372 225.832 L 430.500 225.664 426.513 225.257 C 424.320 225.034, 421.845 224.322, 421.013 223.675 C 419.693 222.650, 419.675 222.723, 420.872 224.250 M 511.750 225.723 C 513.538 225.945, 516.462 225.945, 518.250 225.723 C 520.038 225.502, 518.575 225.320, 515 225.320 C 511.425 225.320, 509.962 225.502, 511.750 225.723 M 194.336 233 C 194.336 237.125, 194.513 238.813, 194.728 236.750 C 194.944 234.688, 194.944 231.313, 194.728 229.250 C 194.513 227.188, 194.336 228.875, 194.336 233 M 212.015 230.417 C 211.999 235.746, 212.588 236.189, 213.414 231.470 C 213.701 229.836, 213.506 227.825, 212.983 227 C 212.305 225.932, 212.026 226.916, 212.015 230.417 M 109.978 227.717 C 112.991 227.939, 115.838 228.656, 116.304 229.310 C 116.896 230.140, 117.030 230.047, 116.747 229 C 116.449 227.896, 114.781 227.475, 110.421 227.406 L 104.500 227.313 109.978 227.717 M 120.398 228.405 C 120.102 229.177, 120.044 231.315, 120.270 233.155 C 120.645 236.214, 120.694 236.141, 120.840 232.307 C 120.999 228.132, 121.017 228.113, 125.250 227.732 L 129.500 227.349 125.219 227.175 C 122.337 227.057, 120.761 227.459, 120.398 228.405 M 256.500 233.536 C 258.150 234.292, 260.175 234.896, 261 234.879 C 261.825 234.862, 260.925 234.241, 259 233.500 C 254.434 231.742, 252.638 231.768, 256.500 233.536 M 499.200 236.200 C 497.195 238.205, 497.851 241.738, 500.635 243.927 C 502.717 245.565, 504.553 245.967, 509.385 245.843 L 515.500 245.685 508.900 245.093 C 505.270 244.767, 501.558 243.882, 500.650 243.128 C 498.719 241.521, 498.485 237.915, 500.200 236.200 C 500.860 235.540, 501.175 235, 500.900 235 C 500.625 235, 499.860 235.540, 499.200 236.200 M 518.862 237.237 C 519.611 238.193, 519.963 239.655, 519.643 240.487 C 519.324 241.319, 519.499 242, 520.031 242 C 521.665 242, 521.106 238.328, 519.250 236.872 C 517.667 235.631, 517.630 235.666, 518.862 237.237 M 304.250 243.689 C 305.212 243.941, 306.788 243.941, 307.750 243.689 C 308.712 243.438, 307.925 243.232, 306 243.232 C 304.075 243.232, 303.288 243.438, 304.250 243.689 M 540.762 243.707 C 542.006 243.946, 543.806 243.937, 544.762 243.687 C 545.718 243.437, 544.700 243.241, 542.500 243.252 C 540.300 243.263, 539.518 243.468, 540.762 243.707 M 320.537 247.584 C 319.606 249.005, 316.967 251.020, 314.672 252.062 C 312.377 253.104, 311.221 253.966, 312.102 253.978 C 314.246 254.007, 319.936 250.048, 321.770 247.250 C 322.580 246.012, 323.016 245, 322.737 245 C 322.458 245, 321.468 246.163, 320.537 247.584 M 303.762 254.707 C 305.006 254.946, 306.806 254.937, 307.762 254.687 C 308.718 254.437, 307.700 254.241, 305.500 254.252 C 303.300 254.263, 302.518 254.468, 303.762 254.707 M 506.250 254.716 C 507.762 254.945, 510.238 254.945, 511.750 254.716 C 513.263 254.487, 512.025 254.300, 509 254.300 C 505.975 254.300, 504.738 254.487, 506.250 254.716 M 540.750 254.706 C 541.987 254.944, 544.013 254.944, 545.250 254.706 C 546.487 254.467, 545.475 254.272, 543 254.272 C 540.525 254.272, 539.513 254.467, 540.750 254.706" stroke="none" fill="#516174" fill-rule="evenodd"/><path d="M 112 110 C 111.175 110.533, 109.458 110.976, 108.185 110.985 C 105.341 111.004, 88.909 119.428, 85.432 122.651 C 84.038 123.943, 82.500 125, 82.016 125 C 81.062 125, 72.187 133.557, 67.774 138.733 C 62.141 145.338, 58.133 151.750, 54.657 159.716 C 48.712 173.343, 47.606 178.806, 47.616 194.500 C 47.626 210.961, 49.280 219.208, 55.136 232 L 59.027 240.500 55.510 236.500 C 53.575 234.300, 49.917 228.225, 47.380 223 C 44.843 217.775, 42.315 212.631, 41.762 211.568 C 41.208 210.506, 40.522 205.893, 40.237 201.318 C 39.952 196.743, 39.371 193, 38.948 193 C 38.154 193, 38.266 191.626, 39.273 189 C 39.589 188.175, 40.063 184.350, 40.326 180.500 C 40.798 173.571, 44.088 162.086, 48.162 153.143 C 51.578 145.646, 58.599 136.040, 66.721 127.750 C 70.898 123.487, 73.731 120, 73.018 120 C 72.304 120, 71.075 120.787, 70.286 121.750 C 69.497 122.713, 69.164 122.893, 69.547 122.150 C 70.294 120.697, 69.715 120.973, 63.500 125.023 C 61.850 126.098, 59.825 127.288, 59 127.666 C 58.175 128.044, 57.275 128.615, 57 128.933 C 56.725 129.251, 54.716 130.843, 52.536 132.470 C 47.574 136.173, 46.221 137.529, 40.588 144.445 C 22.861 166.208, 22.368 203.452, 39.421 232.431 C 44.681 241.368, 58.730 255.678, 66.424 259.936 C 83.336 269.293, 104.530 275.550, 116.676 274.770 C 120.704 274.512, 124 274.603, 124 274.974 C 124 275.933, 112.623 278.221, 105.314 278.732 C 98.709 279.194, 87.182 277.145, 78.247 273.921 C 53.392 264.953, 35.399 246.650, 26.692 221.477 C 23.877 213.338, 23.077 209.204, 22.434 199.477 C 21.998 192.890, 21.761 186.437, 21.907 185.138 C 22.084 183.565, 21.787 183.013, 21.020 183.488 C 20.386 183.880, 20.123 184.457, 20.437 184.770 C 20.750 185.084, 20.325 186.381, 19.492 187.653 C 18.658 188.925, 17.234 195.036, 16.326 201.233 C 14.297 215.081, 15.378 226.223, 20.113 240.266 C 25.612 256.575, 30.115 263.133, 40.657 270.190 C 61.822 284.358, 87.555 290.572, 109.989 286.932 C 117.455 285.721, 130.231 280.471, 137.500 275.627 C 140.250 273.795, 145.712 270.203, 149.637 267.646 C 158.824 261.661, 167.892 251.924, 173.076 242.478 C 175.334 238.365, 177.341 235, 177.537 235 C 178.170 235, 174.308 245.479, 172.176 249.548 C 166.291 260.777, 157.779 270.614, 148.012 277.474 C 134.225 287.156, 123.114 291.894, 107.944 294.559 C 99.024 296.126, 96.548 296.191, 87.228 295.108 C 76.883 293.905, 65.123 290.522, 56.047 286.137 C 47.739 282.123, 46.650 283.836, 53.687 289.851 C 70.482 304.207, 104.086 314.310, 123.854 310.947 C 136.663 308.768, 149.132 300.962, 162.813 286.560 C 174.759 273.983, 182.295 260.439, 186.108 244.687 C 188.735 233.839, 188.690 214.271, 186.016 204.219 C 184.951 200.214, 183.810 196.501, 183.481 195.969 C 183.151 195.436, 183.131 195, 183.434 195 C 184.889 195, 190.299 208.605, 192.517 217.839 C 195.407 229.873, 195.584 234.891, 193.454 244.500 C 188.890 265.089, 181.653 278.298, 166.253 294.148 C 163.234 297.254, 160.930 300.273, 161.133 300.856 C 161.672 302.413, 172.498 296.751, 180.569 290.691 C 189.345 284.101, 200.505 270.343, 202.599 263.532 C 203.451 260.765, 204.793 253.550, 205.583 247.500 C 207.148 235.515, 206.263 221.360, 203.458 213.500 C 202.672 211.300, 201.842 208.375, 201.613 207 C 201.240 204.766, 196.866 195.159, 192.174 186.272 C 188.299 178.930, 176.752 167.862, 167 162.142 C 156.891 156.213, 140.853 150.838, 132.321 150.519 C 131.672 150.494, 130.809 150.143, 130.404 149.737 C 129.144 148.477, 113.771 148.951, 108.253 150.421 C 105.112 151.257, 102.774 151.443, 102.428 150.884 C 102.111 150.371, 102.222 150.015, 102.676 150.094 C 105.260 150.543, 107.966 149.832, 107.750 148.761 C 107.588 147.959, 108.471 147.632, 110.250 147.833 C 111.812 148.009, 113 147.655, 113 147.013 C 113 146.391, 113.386 146.120, 113.858 146.412 C 114.329 146.704, 116.242 146.475, 118.108 145.905 C 122.781 144.477, 138.880 144.532, 144.988 145.997 C 147.758 146.662, 150.716 146.939, 151.564 146.614 C 152.444 146.276, 152.842 146.446, 152.493 147.011 C 152.157 147.555, 152.809 148, 153.941 148 C 155.073 148, 156 147.589, 156 147.087 C 156 146.585, 157.350 146.683, 159 147.306 C 160.650 147.929, 162 148.774, 162 149.184 C 162 149.594, 163.012 150.469, 164.250 151.129 C 166.371 152.259, 166.415 152.217, 165.017 150.414 C 163.584 148.564, 163.603 148.558, 165.596 150.250 C 166.730 151.213, 168.007 152, 168.435 152 C 168.862 152, 170.097 153.125, 171.179 154.500 C 172.260 155.875, 173.900 156.993, 174.823 156.985 C 176.281 156.971, 176.305 156.831, 175 155.909 C 173.667 154.966, 173.667 154.898, 175 155.299 C 175.825 155.547, 176.405 156.204, 176.289 156.759 C 176.173 157.314, 178.873 160.163, 182.289 163.090 C 185.705 166.017, 187.600 167.307, 186.500 165.956 L 184.500 163.500 186.750 165.405 C 187.988 166.453, 189 167.869, 189 168.551 C 189 169.234, 190.463 171.077, 192.250 172.646 C 194.038 174.216, 195.589 175.852, 195.697 176.282 C 195.806 176.712, 197.493 179.696, 199.447 182.913 C 201.401 186.130, 203 189.292, 203 189.940 C 203 190.588, 203.445 190.843, 203.989 190.507 C 204.555 190.157, 204.723 190.558, 204.382 191.448 C 204.035 192.350, 204.319 193, 205.060 193 C 205.760 193, 206.059 193.274, 205.724 193.609 C 205.389 193.944, 206.032 196.532, 207.153 199.359 C 208.275 202.187, 209.390 206.075, 209.633 208 C 209.875 209.925, 210.510 211.651, 211.043 211.835 C 211.576 212.020, 211.795 212.523, 211.529 212.953 C 211.263 213.383, 211.514 216.832, 212.086 220.618 C 212.657 224.403, 213.072 228.850, 213.008 230.500 C 212.943 232.150, 212.802 235.258, 212.695 237.407 C 212.565 240.010, 212.970 241.473, 213.909 241.793 C 214.916 242.136, 215.123 241.764, 214.635 240.492 C 214.219 239.408, 214.611 237.982, 215.636 236.849 C 216.563 235.825, 217.028 234.694, 216.669 234.336 C 216.311 233.977, 216.514 233.086, 217.121 232.354 C 218.793 230.339, 219.560 203.915, 218.029 201.054 C 217.236 199.573, 217.191 199, 217.900 199.438 C 218.505 199.812, 219 199.641, 219 199.059 C 219 198.477, 218.662 198, 218.250 198.001 C 217.838 198.001, 217.500 196.314, 217.500 194.251 C 217.500 191.783, 217.072 190.586, 216.250 190.750 C 215.563 190.887, 215 190.298, 215 189.441 C 215 188.505, 215.468 188.171, 216.170 188.605 C 216.912 189.063, 217.150 188.811, 216.820 187.914 C 216.534 187.136, 215.496 183.912, 214.513 180.750 C 213.530 177.588, 212.413 175, 212.030 175 C 211.647 175, 211.333 174.387, 211.333 173.638 C 211.333 171.751, 207.055 165, 205.859 165 C 205.322 165, 205.118 164.618, 205.407 164.151 C 206.151 162.947, 193.180 150.771, 191.958 151.526 C 191.404 151.868, 191.074 151.710, 191.225 151.174 C 191.376 150.638, 191.100 150.193, 190.612 150.185 C 190.123 150.177, 189.448 149.784, 189.112 149.312 C 188.053 147.826, 183.611 145.344, 180.750 144.639 C 179.238 144.267, 178 143.520, 178 142.981 C 178 142.441, 177.337 142, 176.527 142 C 175.716 142, 173.129 141.135, 170.777 140.077 C 164.033 137.046, 155.791 134.942, 152.274 135.354 C 150.499 135.562, 149.288 135.342, 149.583 134.866 C 149.877 134.390, 145.141 134, 139.059 134 C 132.977 134, 128 134.401, 128 134.890 C 128 135.380, 126.537 135.589, 124.750 135.355 C 122.763 135.095, 120.047 135.676, 117.761 136.851 C 115.705 137.908, 114.261 138.386, 114.554 137.913 C 114.846 137.439, 112.704 138.161, 109.793 139.516 C 106.882 140.872, 103.986 141.985, 103.357 141.990 C 102.728 141.996, 101.955 142.675, 101.638 143.500 C 101.322 144.325, 100.400 145, 99.590 145 C 98.781 145, 97.797 145.520, 97.405 146.155 C 96.932 146.918, 97.134 147.035, 98 146.500 C 98.899 145.944, 99.069 146.080, 98.542 146.933 C 98.009 147.794, 97.455 147.855, 96.732 147.132 C 94.212 144.612, 72.659 163.541, 64.010 175.870 C 61.567 179.353, 59.430 181.790, 59.262 181.286 C 58.886 180.158, 64.435 169.432, 69.238 162 C 77.876 148.637, 93.638 136.058, 109 130.268 C 116.831 127.317, 136.428 123.830, 141.500 124.485 C 155.607 126.308, 166.605 129.211, 175.665 133.502 C 186.130 138.458, 188.205 138.989, 185.521 136.024 C 184.538 134.937, 183.273 134.331, 182.712 134.678 C 182.150 135.025, 181.989 134.828, 182.352 134.239 C 183.272 132.750, 170.974 123.643, 162.500 119.538 C 154.727 115.773, 144.791 112.260, 139.779 111.504 C 121.534 108.753, 114.517 108.373, 112 110 M 204.763 127.565 C 198.572 130.924, 197.585 138.976, 202.629 144.971 C 204.895 147.664, 205.785 148, 210.655 148 C 217.160 148, 219.461 146.943, 221.490 143.020 C 224.496 137.207, 222.446 129.436, 217.288 127.085 C 213.966 125.572, 208.016 125.800, 204.763 127.565 M 208.213 133.188 C 205.747 135.653, 207.320 138.582, 210.463 137.376 C 211.415 137.011, 211.978 135.885, 211.803 134.701 C 211.435 132.216, 209.851 131.549, 208.213 133.188 M 109.763 165.269 C 101.274 173.369, 101.772 172.929, 82.500 189.380 C 66.298 203.211, 59 210.038, 59 211.361 C 59 211.877, 60.579 213.832, 62.510 215.707 L 66.020 219.116 76.260 209.169 C 81.892 203.698, 90.325 195.970, 95 191.995 C 99.675 188.021, 106.733 181.599, 110.685 177.724 L 117.869 170.680 123.185 176.147 C 128.375 181.486, 133.757 186.273, 149 199.110 C 153.125 202.584, 159.628 208.486, 163.452 212.227 L 170.403 219.027 172.671 216.264 C 176.808 211.220, 176.671 210.107, 171.361 205.617 C 168.687 203.357, 164.830 199.931, 162.790 198.004 L 159.080 194.500 158.602 183.646 C 158.340 177.676, 157.901 172.568, 157.627 172.293 C 157.352 172.019, 154.817 172.113, 151.992 172.501 L 146.856 173.208 147.178 177.826 C 147.750 186.027, 145.732 184.823, 123.840 163.904 C 121.770 161.927, 119.462 159.798, 118.709 159.174 C 117.627 158.276, 115.759 159.549, 109.763 165.269 M 261.500 173.704 C 258.750 174.639, 254.700 177.100, 252.500 179.171 C 248.597 182.846, 248.500 183.102, 248.500 189.719 C 248.500 195.172, 248.946 197.125, 250.775 199.689 C 253.117 202.973, 261.998 207.833, 266.803 208.461 C 275.945 209.655, 280 212.464, 280 217.602 C 280 226.841, 264.046 227.433, 255.764 218.501 L 253.235 215.773 249.644 219.637 C 247.670 221.762, 246.042 223.860, 246.027 224.301 C 246.012 224.742, 247.620 226.586, 249.600 228.400 C 256.174 234.422, 270.275 237.279, 279.193 234.395 C 288.772 231.297, 292.329 226.268, 292.109 216.132 C 291.880 205.562, 287.738 201.539, 273.880 198.424 C 269.821 197.512, 265.938 196.313, 265.250 195.760 C 264.563 195.208, 264 195.105, 264 195.533 C 264 195.960, 263.100 195.495, 262 194.500 C 259.992 192.683, 259.376 188.529, 260.786 186.313 C 262.577 183.495, 274.071 181.689, 275.500 184 C 275.840 184.550, 276.936 185, 277.937 185 C 278.937 185, 280.315 185.675, 281 186.500 C 283.089 189.018, 285.525 188.190, 287.767 184.201 L 289.902 180.401 287.041 177.701 C 285.467 176.215, 283.329 175, 282.290 175 C 281.250 175, 279.953 174.553, 279.406 174.006 C 277.484 172.084, 266.793 171.903, 261.500 173.704 M 114.941 184.848 C 113.534 186.307, 108.809 190.643, 104.441 194.485 C 100.074 198.327, 91.662 206.177, 85.750 211.928 L 75 222.385 75 234.649 L 75 246.914 81.750 252.281 C 90.764 259.449, 94.507 261.477, 103.254 263.931 C 112.966 266.656, 126.534 266.741, 134.142 264.123 C 143.525 260.895, 147.998 258.072, 155.110 250.888 L 162 243.930 162 233.667 L 162 223.405 148.732 210.452 C 141.434 203.329, 131.759 194.410, 127.232 190.634 C 122.704 186.858, 119 183.371, 119 182.884 C 119 181.401, 117.626 182.066, 114.941 184.848 M 520.875 183.500 C 520.638 186.340, 520.498 186.836, 519.702 187.632 C 519.263 188.071, 514.988 188.446, 510.202 188.465 C 499.949 188.506, 495.931 190.316, 492.875 196.269 C 489.733 202.390, 491.049 209.404, 496.224 214.117 C 498.319 216.025, 498.548 218, 496.674 218 C 495.945 218, 494.362 219.051, 493.155 220.335 C 490.543 223.115, 490.782 226.361, 493.833 229.530 C 496.457 232.257, 496.545 232.990, 494.250 233.033 C 493.288 233.052, 491.402 233.980, 490.060 235.097 C 488.028 236.788, 487.633 237.988, 487.697 242.264 C 487.791 248.443, 489.530 250.226, 497.814 252.634 C 507.301 255.392, 524.670 253.438, 527.272 249.320 C 527.697 248.648, 528.635 247.508, 529.356 246.787 C 532.929 243.213, 531.807 231.021, 527.706 228.862 C 526.493 228.223, 525.269 227.352, 524.987 226.925 C 524.705 226.499, 520.240 226.028, 515.064 225.878 C 507.093 225.648, 505.269 225.276, 503.136 223.441 C 500.666 221.316, 500.656 221.254, 502.636 220.195 C 503.746 219.601, 507.095 219.020, 510.077 218.904 C 523.167 218.395, 530.927 207.494, 525.572 197.139 C 523.897 193.900, 523.910 193.812, 526.435 191.472 C 527.846 190.165, 529 188.661, 529 188.130 C 529 187.598, 529.253 186.505, 529.561 185.701 C 529.942 184.709, 529.090 183.878, 526.912 183.119 C 522.588 181.612, 521.024 181.710, 520.875 183.500 M 370.207 189.668 C 368.396 190.561, 366.468 192.126, 365.922 193.146 C 364.428 195.937, 363 195.377, 363 192 C 363 189.029, 362.947 189, 357.481 189 L 351.962 189 352.231 211.750 L 352.500 234.500 358.027 234.793 L 363.555 235.087 363.867 219.820 C 364.276 199.817, 365.188 198.051, 375.128 198.014 C 380.991 197.992, 381.433 199.272, 381.997 217.900 L 382.500 234.500 387.750 234.802 L 393 235.105 393.111 218.802 C 393.172 209.836, 393.146 201.375, 393.054 200 C 392.817 196.449, 387.918 189.708, 384.981 188.890 C 380.517 187.647, 373.565 188.013, 370.207 189.668 M 417.459 189 C 413.502 190.235, 408.345 194.885, 405.924 199.404 C 403.047 204.771, 403.205 218.398, 406.211 224.219 C 409.126 229.863, 409.846 230.520, 416.145 233.273 C 423.169 236.343, 429.346 236.638, 435.088 234.177 C 439.229 232.402, 445 227.062, 445 225.005 C 445 224.542, 443.398 223.173, 441.440 221.963 L 437.881 219.763 435.690 221.757 C 430.382 226.588, 424.151 227.363, 419.952 223.714 C 417.825 221.866, 415 217.153, 415 215.453 C 415 215.204, 421.741 215, 429.981 215 L 444.962 215 445.610 212.416 C 446.453 209.060, 445.445 200.684, 443.795 197.320 C 443.083 195.869, 440.872 193.373, 438.883 191.774 C 435.787 189.284, 434.204 188.807, 427.883 188.459 C 423.822 188.235, 419.131 188.479, 417.459 189 M 473.750 189.162 C 472.238 189.715, 471 190.611, 471 191.155 C 471 192.572, 468.355 195.021, 467.619 194.286 C 467.279 193.945, 467 192.617, 467 191.333 C 467 189.171, 466.596 189, 461.481 189 L 455.962 189 456.231 211.750 L 456.500 234.500 461.655 234.799 L 466.810 235.098 467.155 220.799 C 467.445 208.793, 467.813 205.983, 469.449 203.279 C 471.729 199.509, 476.014 197.724, 480.682 198.600 C 483.667 199.160, 484.007 198.985, 484.069 196.861 C 484.107 195.563, 484.296 193.306, 484.490 191.846 C 484.761 189.806, 484.341 189.057, 482.672 188.610 C 479.688 187.810, 476.998 187.976, 473.750 189.162 M 566.513 198 C 564.912 203.225, 563.282 208.175, 562.890 209 C 562.498 209.825, 561.425 212.637, 560.506 215.250 C 559.587 217.863, 558.534 220, 558.167 220 C 557.344 220, 553.160 208.856, 552.073 203.768 C 551.634 201.716, 550.772 199.431, 550.158 198.690 C 549.543 197.949, 548.852 196.478, 548.622 195.422 C 547.237 189.057, 547.165 189, 540.434 189 L 534.102 189 535.655 192.750 C 536.510 194.813, 537.574 196.950, 538.019 197.500 C 538.465 198.050, 538.788 198.725, 538.737 199 C 538.635 199.548, 541.518 207.747, 543.485 212.500 C 544.168 214.150, 545.755 218.200, 547.012 221.500 C 548.270 224.800, 549.906 228.918, 550.649 230.651 C 552.518 235.010, 552.339 238.360, 550.088 241.139 C 548.448 243.164, 547.277 243.503, 541.862 243.521 L 535.548 243.541 534.794 247.958 C 534.380 250.387, 534.195 252.529, 534.385 252.718 C 535.536 253.869, 545.598 254.092, 549.324 253.049 C 553.860 251.779, 559 248.106, 559 246.134 C 559 245.510, 559.441 245, 559.981 245 C 560.520 245, 561.263 243.762, 561.630 242.250 C 561.998 240.738, 562.906 238.612, 563.649 237.527 C 564.392 236.443, 565 234.810, 565 233.900 C 565 232.989, 565.755 230.502, 566.677 228.372 C 567.599 226.242, 568.473 223.844, 568.619 223.042 C 568.765 222.239, 569.563 219.989, 570.393 218.042 C 571.223 216.094, 573.996 209.100, 576.556 202.500 C 579.115 195.900, 581.390 190.201, 581.611 189.836 C 581.832 189.470, 579.180 189.020, 575.718 188.836 L 569.423 188.500 566.513 198 M 300.655 198.250 C 304.450 208.263, 304.840 209.245, 307.717 216 C 308.772 218.475, 310.489 223.200, 311.535 226.500 C 312.580 229.800, 313.994 233.362, 314.677 234.414 C 315.694 235.982, 315.620 236.835, 314.269 239.122 C 312.076 242.834, 308.233 244.308, 302.852 243.500 L 298.490 242.846 297.445 247.354 C 296.460 251.596, 296.537 251.923, 298.747 252.930 C 302.201 254.504, 309.377 254.233, 314.082 252.351 C 319.210 250.299, 323.005 245.220, 326.533 235.688 C 327.996 231.735, 329.791 227.150, 330.520 225.500 C 333.119 219.622, 334.883 213.619, 334.292 212.663 C 333.960 212.126, 334.208 212.010, 334.845 212.405 C 335.555 212.843, 336.002 212.421, 336.006 211.309 C 336.010 210.314, 336.612 208.350, 337.346 206.945 C 338.637 204.471, 341.279 197.389, 343.014 191.750 L 343.860 189 337.958 189 L 332.056 189 330.407 194.750 C 329.500 197.912, 328.429 200.950, 328.026 201.500 C 327.623 202.050, 326.804 204.300, 326.206 206.500 C 322.963 218.437, 320.062 222.960, 319.203 217.417 C 319.039 216.363, 318.282 213.925, 317.520 212 C 312.845 200.197, 311 194.964, 311 193.508 C 311 190.430, 308.351 189, 302.646 189 L 297.149 189 300.655 198.250 M 505.882 196.511 C 500.641 199.343, 501.578 208.424, 507.320 210.444 C 512.036 212.102, 515.431 209.487, 515.797 203.915 C 516.017 200.554, 515.633 198.990, 514.297 197.816 C 511.536 195.389, 508.757 194.958, 505.882 196.511 M 419.750 198.572 C 418.238 199.393, 417 200.688, 417 201.450 C 417 202.213, 416.727 203.548, 416.393 204.418 C 415.866 205.792, 417.031 206, 425.254 206 L 434.723 206 434.240 203.250 C 433.251 197.610, 425.898 195.236, 419.750 198.572 M 103.427 211.329 C 103.126 212.113, 103.020 214.947, 103.190 217.627 L 103.500 222.500 110 222.500 L 116.500 222.500 116.500 216.500 L 116.500 210.500 110.237 210.202 C 105.533 209.978, 103.838 210.259, 103.427 211.329 M 120.865 213.205 C 120.664 215.017, 120.643 217.983, 120.817 219.796 L 121.134 223.092 127.317 222.796 L 133.500 222.500 133.500 216.500 L 133.500 210.500 127.365 210.205 L 121.229 209.911 120.865 213.205 M 103.312 228.627 C 103.075 229.247, 103.020 231.947, 103.190 234.627 L 103.500 239.500 110.250 239.796 L 117 240.091 116.985 235.296 C 116.976 232.658, 116.639 229.985, 116.235 229.355 C 115.234 227.795, 103.875 227.155, 103.312 228.627 M 125.346 227.711 C 121.248 228.100, 121.188 228.163, 120.846 232.387 C 120.243 239.845, 120.381 240, 127.621 240 L 134.095 240 133.798 233.750 C 133.468 226.826, 133.607 226.925, 125.346 227.711 M 499.011 236.389 C 497.180 238.220, 497.955 241.820, 500.635 243.927 C 504.415 246.901, 513.187 246.810, 517.681 243.750 C 521.290 241.294, 521.879 238.975, 519.415 236.930 C 517.493 235.334, 500.516 234.884, 499.011 236.389 M 115.512 250.236 L 112.880 252.500 117.341 252.500 C 121.225 252.500, 121.685 252.280, 120.896 250.806 C 119.387 247.985, 118.267 247.867, 115.512 250.236 M 211.549 265.677 C 207.091 268.090, 205.070 271.074, 205.033 275.300 C 204.945 285.436, 214.132 290.878, 223.682 286.347 C 227.879 284.355, 229.322 281.073, 228.743 274.833 C 228.260 269.628, 226.719 267.616, 221.567 265.464 C 217.172 263.627, 215.261 263.668, 211.549 265.677 M 16.117 268.631 C 12.533 271.141, 10.813 276.122, 12.135 280.165 C 13.728 285.038, 16.470 287, 21.688 287 C 31.106 287, 35.650 276.497, 29.077 269.923 C 25.672 266.518, 19.948 265.947, 16.117 268.631 M 213.011 271.487 C 211.257 273.600, 212.508 276, 215.362 276 C 218.147 276, 219.573 273.395, 217.895 271.373 C 216.412 269.586, 214.552 269.630, 213.011 271.487 M 18.965 273.542 C 18.041 274.656, 17.988 275.388, 18.775 276.175 C 20.351 277.751, 23 276.407, 23 274.031 C 23 271.629, 20.776 271.360, 18.965 273.542" stroke="none" fill="#1d3043" fill-rule="evenodd"/></svg>